<?xml version="1.0"?>
<svg xmlns="http://www.w3.org/2000/svg" xmlns:xlink="http://www.w3.org/1999/xlink" xmlns:svgjs="http://svgjs.com/svgjs" version="1.1" width="512" height="512" x="0" y="0" viewBox="0 0 515.555 515.555" style="enable-background:new 0 0 512 512" xml:space="preserve" class=""><g><path xmlns="http://www.w3.org/2000/svg" d="m143.16 194.119 34.301 39.2 42.805-48.918-28.615-32.7c-30.602-34.991-74.797-55.036-121.243-55.036h-70.408v64.444h70.408c27.864.001 54.39 12.022 72.752 33.01z" fill="#ffffff" data-original="#000000" style="" class=""/><path xmlns="http://www.w3.org/2000/svg" d="m418.89 354.444h-5.963c-27.864 0-54.391-12.02-72.752-33.009l-55.704-63.658 55.704-63.658c18.361-20.989 44.888-33.009 72.752-33.009h5.963v64.444l96.665-96.669-96.665-96.663v64.444h-5.963c-46.445 0-90.641 20.044-121.243 55.036l-148.525 169.733c-18.361 20.988-44.888 33.009-72.752 33.009h-70.407v64.444h70.408c46.445 0 90.641-20.045 121.243-55.036l50.017-57.16 50.017 57.16c30.602 34.991 74.797 55.036 121.243 55.036h5.963v64.444l96.665-96.665-96.666-96.667z" fill="#ffffff" data-original="#000000" style="" class=""/></g></svg>
